REM DIRINDEX 1\2,1\3,1\4,1\5,1\6
REM DIRNAME cjc129,folder01,folder02,folder03,folder04,folder05
TITLE ""
FILE "DISC1Track17.mp3" MP3
  TRACK 01 AUDIO
    TITLE "0:"
    INDEX 01 00:00:00
  TRACK 02 AUDIO
    TITLE "3:cjc129_0462"
    INDEX 01 00:00:05
  TRACK 03 AUDIO
    TITLE "0:"
    INDEX 01 00:01:30
  TRACK 04 AUDIO
    TITLE "5:cjc129_0463"
    INDEX 01 00:01:60
  TRACK 05 AUDIO
    TITLE "0:"
    INDEX 01 00:02:61
  TRACK 06 AUDIO
    TITLE "4:cjc129_0464"
    INDEX 01 00:03:51
  TRACK 07 AUDIO
    TITLE "0:"
    INDEX 01 00:04:74
  TRACK 08 AUDIO
    TITLE "6:cjc129_0465"
    INDEX 01 00:05:32
  TRACK 09 AUDIO
    TITLE "0:"
    INDEX 01 00:10:59
  TRACK 10 AUDIO
    TITLE "3:cjc129_0466"
    INDEX 01 00:12:36
  TRACK 11 AUDIO
    TITLE "0:"
    INDEX 01 00:13:65
  TRACK 12 AUDIO
    TITLE "5:cjc129_0467"
    INDEX 01 00:14:21
  TRACK 13 AUDIO
    TITLE "0:"
    INDEX 01 00:15:70
  TRACK 14 AUDIO
    TITLE "4:cjc129_0468"
    INDEX 01 00:16:61
  TRACK 15 AUDIO
    TITLE "0:"
    INDEX 01 00:18:15
  TRACK 16 AUDIO
    TITLE "6:cjc129_0469"
    INDEX 01 00:18:46
  TRACK 17 AUDIO
    TITLE "0:"
    INDEX 01 00:23:03
  TRACK 18 AUDIO
    TITLE "3:cjc129_0470"
    INDEX 01 00:24:51
  TRACK 19 AUDIO
    TITLE "0:"
    INDEX 01 00:25:66
  TRACK 20 AUDIO
    TITLE "5:cjc129_0471"
    INDEX 01 00:27:38
  TRACK 21 AUDIO
    TITLE "0:"
    INDEX 01 00:29:38
  TRACK 22 AUDIO
    TITLE "4:cjc129_0472"
    INDEX 01 00:30:26
  TRACK 23 AUDIO
    TITLE "0:"
    INDEX 01 00:31:41
  TRACK 24 AUDIO
    TITLE "6:cjc129_0473"
    INDEX 01 00:31:71
  TRACK 25 AUDIO
    TITLE "0:"
    INDEX 01 00:35:70
  TRACK 26 AUDIO
    TITLE "3:cjc129_0474"
    INDEX 01 00:37:46
  TRACK 27 AUDIO
    TITLE "0:"
    INDEX 01 00:38:59
  TRACK 28 AUDIO
    TITLE "5:cjc129_0475"
    INDEX 01 00:40:17
  TRACK 29 AUDIO
    TITLE "0:"
    INDEX 01 00:42:57
  TRACK 30 AUDIO
    TITLE "4:cjc129_0476"
    INDEX 01 00:43:48
  TRACK 31 AUDIO
    TITLE "0:"
    INDEX 01 00:44:61
  TRACK 32 AUDIO
    TITLE "6:cjc129_0477"
    INDEX 01 00:45:18
  TRACK 33 AUDIO
    TITLE "0:"
    INDEX 01 00:49:53
  TRACK 34 AUDIO
    TITLE "3:cjc129_0478"
    INDEX 01 00:51:28
  TRACK 35 AUDIO
    TITLE "0:"
    INDEX 01 00:52:43
  TRACK 36 AUDIO
    TITLE "5:cjc129_0479"
    INDEX 01 00:53:00
  TRACK 37 AUDIO
    TITLE "0:"
    INDEX 01 00:55:38
  TRACK 38 AUDIO
    TITLE "4:cjc129_0480"
    INDEX 01 00:56:27
  TRACK 39 AUDIO
    TITLE "0:"
    INDEX 01 00:57:41
  TRACK 40 AUDIO
    TITLE "6:cjc129_0481"
    INDEX 01 00:57:74
  TRACK 41 AUDIO
    TITLE "0:"
    INDEX 01 01:01:21
  TRACK 42 AUDIO
    TITLE "3:cjc129_0482"
    INDEX 01 01:02:71
  TRACK 43 AUDIO
    TITLE "0:"
    INDEX 01 01:04:11
  TRACK 44 AUDIO
    TITLE "5:cjc129_0483"
    INDEX 01 01:05:58
  TRACK 45 AUDIO
    TITLE "0:"
    INDEX 01 01:06:63
  TRACK 46 AUDIO
    TITLE "4:cjc129_0484"
    INDEX 01 01:07:53
  TRACK 47 AUDIO
    TITLE "0:"
    INDEX 01 01:08:68
  TRACK 48 AUDIO
    TITLE "6:cjc129_0485"
    INDEX 01 01:09:24
  TRACK 49 AUDIO
    TITLE "0:"
    INDEX 01 01:13:30
  TRACK 50 AUDIO
    TITLE "3:cjc129_0486"
    INDEX 01 01:15:07
  TRACK 51 AUDIO
    TITLE "0:"
    INDEX 01 01:16:24
  TRACK 52 AUDIO
    TITLE "5:cjc129_0487"
    INDEX 01 01:17:51
  TRACK 53 AUDIO
    TITLE "0:"
    INDEX 01 01:18:62
  TRACK 54 AUDIO
    TITLE "4:cjc129_0488"
    INDEX 01 01:19:52
  TRACK 55 AUDIO
    TITLE "0:"
    INDEX 01 01:20:69
  TRACK 56 AUDIO
    TITLE "6:cjc129_0489"
    INDEX 01 01:21:25
  TRACK 57 AUDIO
    TITLE "0:"
    INDEX 01 01:27:38
  TRACK 58 AUDIO
    TITLE "3:cjc129_0490"
    INDEX 01 01:29:15
  TRACK 59 AUDIO
    TITLE "0:"
    INDEX 01 01:30:22
  TRACK 60 AUDIO
    TITLE "5:cjc129_0491"
    INDEX 01 01:31:71
  TRACK 61 AUDIO
    TITLE "0:"
    INDEX 01 01:36:23
  TRACK 62 AUDIO
    TITLE "4:cjc129_0492"
    INDEX 01 01:37:11
  TRACK 63 AUDIO
    TITLE "0:"
    INDEX 01 01:38:20
  TRACK 64 AUDIO
    TITLE "6:cjc129_0493"
    INDEX 01 01:38:51
  TRACK 65 AUDIO
    TITLE "0:"
    INDEX 01 01:42:33
  TRACK 66 AUDIO
    TITLE "3:cjc129_0494"
    INDEX 01 01:44:07
  TRACK 67 AUDIO
    TITLE "0:"
    INDEX 01 01:45:16
  TRACK 68 AUDIO
    TITLE "5:cjc129_0495"
    INDEX 01 01:46:47
  TRACK 69 AUDIO
    TITLE "0:"
    INDEX 01 01:54:48
  TRACK 70 AUDIO
    TITLE "4:cjc129_0496"
    INDEX 01 01:55:38
  TRACK 71 AUDIO
    TITLE "0:"
    INDEX 01 01:56:45
  TRACK 72 AUDIO
    TITLE "6:cjc129_0497"
    INDEX 01 01:57:02
  TRACK 73 AUDIO
    TITLE "0:"
    INDEX 01 02:00:27
